<mxfile host="app.diagrams.net" agent="Mozilla/5.0 (Macintosh; Intel Mac OS X 10_15_7) AppleWebKit/537.36 (KHTML, like Gecko) Chrome/131.0.0.0 Safari/537.36" version="26.0.5">
  <diagram name="Page-1" id="k48qIa5gBRi__mkmO5eV">
    <mxGraphModel dx="732" dy="416" grid="1" gridSize="10" guides="1" tooltips="1" connect="1" arrows="1" fold="1" page="1" pageScale="1" pageWidth="850" pageHeight="1100" math="0" shadow="0">
      <root>
        <mxCell id="0" />
        <mxCell id="1" parent="0" />
        <mxCell id="hGwn2hMxjpEgJmbQmO2B-37" value="" style="rounded=0;whiteSpace=wrap;html=1;fillColor=none;strokeColor=#999999;" parent="1" vertex="1">
          <mxGeometry x="236" y="155" width="194" height="100" as="geometry" />
        </mxCell>
        <mxCell id="hGwn2hMxjpEgJmbQmO2B-26" value="&lt;font style=&quot;font-size: 10px;&quot; face=&quot;Times New Roman&quot;&gt;Yes&lt;/font&gt;" style="text;html=1;align=center;verticalAlign=middle;resizable=0;points=[];autosize=1;strokeColor=none;fillColor=none;fontColor=#999999;" parent="1" vertex="1">
          <mxGeometry x="196" y="155" width="40" height="30" as="geometry" />
        </mxCell>
        <mxCell id="hGwn2hMxjpEgJmbQmO2B-40" value="" style="rounded=0;whiteSpace=wrap;html=1;fillColor=none;dashed=1;strokeColor=#999999;" parent="1" vertex="1">
          <mxGeometry x="228" y="149" width="100" height="158" as="geometry" />
        </mxCell>
        <mxCell id="hGwn2hMxjpEgJmbQmO2B-42" value="" style="rounded=0;whiteSpace=wrap;html=1;fillColor=none;dashed=1;strokeColor=light-dark(#999999,#999999);" parent="1" vertex="1">
          <mxGeometry x="337" y="149" width="100" height="158" as="geometry" />
        </mxCell>
        <mxCell id="hGwn2hMxjpEgJmbQmO2B-44" value="" style="rounded=0;whiteSpace=wrap;html=1;fillColor=none;dashed=1;strokeColor=#999999;" parent="1" vertex="1">
          <mxGeometry x="450" y="149" width="100" height="158" as="geometry" />
        </mxCell>
        <mxCell id="hGwn2hMxjpEgJmbQmO2B-47" value="" style="rounded=0;whiteSpace=wrap;html=1;fillColor=none;dashed=1;strokeColor=light-dark(#999999,#999999);" parent="1" vertex="1">
          <mxGeometry x="11" y="149" width="100" height="158" as="geometry" />
        </mxCell>
        <mxCell id="hGwn2hMxjpEgJmbQmO2B-38" style="edgeStyle=orthogonalEdgeStyle;rounded=0;orthogonalLoop=1;jettySize=auto;html=1;entryX=0.5;entryY=0;entryDx=0;entryDy=0;exitX=0.5;exitY=0;exitDx=0;exitDy=0;strokeColor=light-dark(#999999,#999999);" parent="1" source="hGwn2hMxjpEgJmbQmO2B-37" target="hGwn2hMxjpEgJmbQmO2B-2" edge="1">
          <mxGeometry relative="1" as="geometry">
            <mxPoint x="333" y="140" as="sourcePoint" />
            <mxPoint x="60" y="145" as="targetPoint" />
            <Array as="points">
              <mxPoint x="333" y="140" />
              <mxPoint x="60" y="140" />
            </Array>
          </mxGeometry>
        </mxCell>
        <mxCell id="hGwn2hMxjpEgJmbQmO2B-27" style="edgeStyle=orthogonalEdgeStyle;rounded=0;orthogonalLoop=1;jettySize=auto;html=1;entryX=0;entryY=0.5;entryDx=0;entryDy=0;strokeColor=light-dark(#999999,#999999);" parent="1" source="hGwn2hMxjpEgJmbQmO2B-1" target="hGwn2hMxjpEgJmbQmO2B-6" edge="1">
          <mxGeometry relative="1" as="geometry" />
        </mxCell>
        <mxCell id="hGwn2hMxjpEgJmbQmO2B-1" value="&lt;font style=&quot;&quot; face=&quot;Times New Roman&quot;&gt;PENDING&lt;/font&gt;" style="rounded=1;whiteSpace=wrap;html=1;fillColor=light-dark(#FFFFFF,#FFFFFF);strokeColor=light-dark(#999999,#999999);fontColor=#666666;" parent="1" vertex="1">
          <mxGeometry x="240" y="160" width="80" height="40" as="geometry" />
        </mxCell>
        <mxCell id="hGwn2hMxjpEgJmbQmO2B-2" value="&lt;font face=&quot;Times New Roman&quot; style=&quot;&quot;&gt;INITIALIZED&lt;/font&gt;" style="rounded=1;whiteSpace=wrap;html=1;fillColor=light-dark(#FFFFFF,#FFFFFF);strokeColor=light-dark(#999999,#999999);fontColor=#666666;" parent="1" vertex="1">
          <mxGeometry x="20" y="160" width="80" height="40" as="geometry" />
        </mxCell>
        <mxCell id="hGwn2hMxjpEgJmbQmO2B-3" value="&lt;font face=&quot;Times New Roman&quot; style=&quot;&quot;&gt;FAILED&lt;/font&gt;" style="rounded=1;whiteSpace=wrap;html=1;fillColor=light-dark(#FFFFFF,#FFFFFF);strokeColor=light-dark(#999999,#999999);fontColor=#666666;" parent="1" vertex="1">
          <mxGeometry x="20" y="210" width="80" height="40" as="geometry" />
        </mxCell>
        <mxCell id="hGwn2hMxjpEgJmbQmO2B-4" value="&lt;font face=&quot;Times New Roman&quot; style=&quot;&quot;&gt;CANCEL FAILED&lt;/font&gt;" style="rounded=1;whiteSpace=wrap;html=1;fillColor=light-dark(#FFFFFF,#FFFFFF);strokeColor=light-dark(#999999,#999999);fontColor=#666666;" parent="1" vertex="1">
          <mxGeometry x="20" y="260" width="80" height="40" as="geometry" />
        </mxCell>
        <mxCell id="hGwn2hMxjpEgJmbQmO2B-33" style="edgeStyle=orthogonalEdgeStyle;rounded=0;orthogonalLoop=1;jettySize=auto;html=1;entryX=0;entryY=0.5;entryDx=0;entryDy=0;strokeColor=light-dark(#999999,#999999);" parent="1" source="hGwn2hMxjpEgJmbQmO2B-5" target="hGwn2hMxjpEgJmbQmO2B-13" edge="1">
          <mxGeometry relative="1" as="geometry" />
        </mxCell>
        <mxCell id="hGwn2hMxjpEgJmbQmO2B-5" value="&lt;font style=&quot;&quot; face=&quot;Times New Roman&quot;&gt;CANCELING&lt;/font&gt;" style="rounded=1;whiteSpace=wrap;html=1;fillColor=light-dark(#FFFFFF,#FFFFFF);strokeColor=light-dark(#999999,#999999);fontColor=#666666;" parent="1" vertex="1">
          <mxGeometry x="236" y="260" width="80" height="40" as="geometry" />
        </mxCell>
        <mxCell id="hGwn2hMxjpEgJmbQmO2B-32" style="edgeStyle=orthogonalEdgeStyle;rounded=0;orthogonalLoop=1;jettySize=auto;html=1;entryX=0.5;entryY=0;entryDx=0;entryDy=0;strokeColor=#999999;" parent="1" source="hGwn2hMxjpEgJmbQmO2B-6" target="hGwn2hMxjpEgJmbQmO2B-7" edge="1">
          <mxGeometry relative="1" as="geometry" />
        </mxCell>
        <mxCell id="hGwn2hMxjpEgJmbQmO2B-34" style="edgeStyle=orthogonalEdgeStyle;rounded=0;orthogonalLoop=1;jettySize=auto;html=1;entryX=0;entryY=0.5;entryDx=0;entryDy=0;strokeColor=light-dark(#999999,#999999);" parent="1" source="hGwn2hMxjpEgJmbQmO2B-6" target="hGwn2hMxjpEgJmbQmO2B-8" edge="1">
          <mxGeometry relative="1" as="geometry" />
        </mxCell>
        <mxCell id="hGwn2hMxjpEgJmbQmO2B-6" value="&lt;font style=&quot;&quot; face=&quot;Times New Roman&quot;&gt;ACCEPTED&lt;/font&gt;" style="rounded=1;whiteSpace=wrap;html=1;fillColor=light-dark(#FFFFFF,#FFFFFF);strokeColor=light-dark(#999999,#999999);fontColor=#666666;" parent="1" vertex="1">
          <mxGeometry x="345" y="160" width="80" height="40" as="geometry" />
        </mxCell>
        <mxCell id="hGwn2hMxjpEgJmbQmO2B-35" style="edgeStyle=orthogonalEdgeStyle;rounded=0;orthogonalLoop=1;jettySize=auto;html=1;entryX=0;entryY=0.5;entryDx=0;entryDy=0;strokeColor=light-dark(#999999,#999999);" parent="1" source="hGwn2hMxjpEgJmbQmO2B-7" target="hGwn2hMxjpEgJmbQmO2B-8" edge="1">
          <mxGeometry relative="1" as="geometry">
            <Array as="points">
              <mxPoint x="440" y="230" />
              <mxPoint x="440" y="180" />
            </Array>
          </mxGeometry>
        </mxCell>
        <mxCell id="hGwn2hMxjpEgJmbQmO2B-36" style="edgeStyle=orthogonalEdgeStyle;rounded=0;orthogonalLoop=1;jettySize=auto;html=1;entryX=0;entryY=0.5;entryDx=0;entryDy=0;strokeColor=light-dark(#999999,#999999);" parent="1" source="hGwn2hMxjpEgJmbQmO2B-7" target="hGwn2hMxjpEgJmbQmO2B-14" edge="1">
          <mxGeometry relative="1" as="geometry" />
        </mxCell>
        <mxCell id="hGwn2hMxjpEgJmbQmO2B-7" value="&lt;font face=&quot;Times New Roman&quot; style=&quot;&quot;&gt;PARTIALLY FILLED&lt;/font&gt;" style="rounded=1;whiteSpace=wrap;html=1;fillColor=light-dark(#FFFFFF,#FFFFFF);strokeColor=light-dark(#999999,#999999);fontColor=#666666;" parent="1" vertex="1">
          <mxGeometry x="345" y="210" width="80" height="40" as="geometry" />
        </mxCell>
        <mxCell id="hGwn2hMxjpEgJmbQmO2B-8" value="&lt;font style=&quot;&quot; face=&quot;Times New Roman&quot;&gt;FILLED&lt;/font&gt;" style="rounded=1;whiteSpace=wrap;html=1;fillColor=light-dark(#FFFFFF,#FFFFFF);strokeColor=light-dark(#999999,#999999);fontColor=#666666;" parent="1" vertex="1">
          <mxGeometry x="460" y="160" width="80" height="40" as="geometry" />
        </mxCell>
        <mxCell id="hGwn2hMxjpEgJmbQmO2B-13" value="&lt;font style=&quot;&quot; face=&quot;Times New Roman&quot;&gt;CANCELED&lt;/font&gt;" style="rounded=1;whiteSpace=wrap;html=1;fillColor=light-dark(#FFFFFF,#FFFFFF);strokeColor=light-dark(#999999,#999999);fontColor=#666666;" parent="1" vertex="1">
          <mxGeometry x="460" y="260" width="80" height="40" as="geometry" />
        </mxCell>
        <mxCell id="hGwn2hMxjpEgJmbQmO2B-14" value="&lt;font style=&quot;&quot; face=&quot;Times New Roman&quot;&gt;EXPIRED&lt;/font&gt;" style="rounded=1;whiteSpace=wrap;html=1;fillColor=light-dark(#FFFFFF,#FFFFFF);strokeColor=light-dark(#999999,#999999);fontColor=#666666;" parent="1" vertex="1">
          <mxGeometry x="460" y="210" width="80" height="40" as="geometry" />
        </mxCell>
        <mxCell id="hGwn2hMxjpEgJmbQmO2B-21" style="edgeStyle=orthogonalEdgeStyle;rounded=0;orthogonalLoop=1;jettySize=auto;html=1;entryX=1;entryY=0.5;entryDx=0;entryDy=0;strokeColor=light-dark(#999999,#999999);" parent="1" source="hGwn2hMxjpEgJmbQmO2B-19" target="hGwn2hMxjpEgJmbQmO2B-3" edge="1">
          <mxGeometry relative="1" as="geometry">
            <Array as="points">
              <mxPoint x="160" y="230" />
            </Array>
          </mxGeometry>
        </mxCell>
        <mxCell id="hGwn2hMxjpEgJmbQmO2B-22" style="edgeStyle=orthogonalEdgeStyle;rounded=0;orthogonalLoop=1;jettySize=auto;html=1;entryX=1;entryY=0.5;entryDx=0;entryDy=0;strokeColor=light-dark(#999999,#999999);" parent="1" source="hGwn2hMxjpEgJmbQmO2B-19" target="hGwn2hMxjpEgJmbQmO2B-4" edge="1">
          <mxGeometry relative="1" as="geometry">
            <Array as="points">
              <mxPoint x="160" y="280" />
            </Array>
          </mxGeometry>
        </mxCell>
        <mxCell id="hGwn2hMxjpEgJmbQmO2B-24" style="edgeStyle=orthogonalEdgeStyle;rounded=0;orthogonalLoop=1;jettySize=auto;html=1;entryX=0;entryY=0.5;entryDx=0;entryDy=0;strokeColor=light-dark(#999999,#999999);" parent="1" source="hGwn2hMxjpEgJmbQmO2B-19" target="hGwn2hMxjpEgJmbQmO2B-1" edge="1">
          <mxGeometry relative="1" as="geometry" />
        </mxCell>
        <mxCell id="hGwn2hMxjpEgJmbQmO2B-25" style="edgeStyle=orthogonalEdgeStyle;rounded=0;orthogonalLoop=1;jettySize=auto;html=1;entryX=0;entryY=0.5;entryDx=0;entryDy=0;strokeColor=light-dark(#999999,#999999);" parent="1" source="hGwn2hMxjpEgJmbQmO2B-19" target="hGwn2hMxjpEgJmbQmO2B-5" edge="1">
          <mxGeometry relative="1" as="geometry">
            <Array as="points">
              <mxPoint x="220" y="180" />
              <mxPoint x="220" y="280" />
            </Array>
          </mxGeometry>
        </mxCell>
        <mxCell id="hGwn2hMxjpEgJmbQmO2B-19" value="&lt;font style=&quot;font-size: 10px; color: light-dark(rgb(102, 102, 102), rgb(102, 102, 102));&quot; face=&quot;Times New Roman&quot;&gt;SUCCESS&lt;/font&gt;" style="rhombus;whiteSpace=wrap;html=1;strokeColor=light-dark(#999999,#999999);fillColor=light-dark(#FFFFFF,#FFFFFF);" parent="1" vertex="1">
          <mxGeometry x="120" y="165" width="80" height="30" as="geometry" />
        </mxCell>
        <mxCell id="hGwn2hMxjpEgJmbQmO2B-20" style="edgeStyle=orthogonalEdgeStyle;rounded=0;orthogonalLoop=1;jettySize=auto;html=1;entryX=-0.035;entryY=0.501;entryDx=0;entryDy=0;entryPerimeter=0;strokeColor=light-dark(#999999,#999999);" parent="1" source="hGwn2hMxjpEgJmbQmO2B-2" target="hGwn2hMxjpEgJmbQmO2B-19" edge="1">
          <mxGeometry relative="1" as="geometry">
            <Array as="points">
              <mxPoint x="110" y="180" />
              <mxPoint x="110" y="180" />
            </Array>
          </mxGeometry>
        </mxCell>
        <mxCell id="hGwn2hMxjpEgJmbQmO2B-23" value="&lt;font style=&quot;font-size: 10px;&quot; face=&quot;Times New Roman&quot;&gt;No&lt;/font&gt;" style="text;html=1;align=center;verticalAlign=middle;resizable=0;points=[];autosize=1;strokeColor=none;fillColor=none;fontColor=#999999;" parent="1" vertex="1">
          <mxGeometry x="150" y="198" width="40" height="30" as="geometry" />
        </mxCell>
        <mxCell id="hGwn2hMxjpEgJmbQmO2B-39" value="&lt;font style=&quot;font-size: 10px;&quot; face=&quot;Times New Roman&quot;&gt;Can be Canceled&lt;/font&gt;" style="text;html=1;align=center;verticalAlign=middle;resizable=0;points=[];autosize=1;strokeColor=none;fillColor=none;fontColor=#999999;" parent="1" vertex="1">
          <mxGeometry x="145" y="117" width="90" height="30" as="geometry" />
        </mxCell>
        <mxCell id="hGwn2hMxjpEgJmbQmO2B-41" value="&lt;font style=&quot;font-size: 10px;&quot; face=&quot;Times New Roman&quot;&gt;IN FLOW&lt;/font&gt;" style="text;html=1;align=center;verticalAlign=middle;resizable=0;points=[];autosize=1;strokeColor=none;fillColor=none;fontColor=#999999;" parent="1" vertex="1">
          <mxGeometry x="245" y="300" width="60" height="30" as="geometry" />
        </mxCell>
        <mxCell id="hGwn2hMxjpEgJmbQmO2B-43" value="&lt;span style=&quot;font-family: &amp;quot;Times New Roman&amp;quot;; font-size: 10px;&quot;&gt;OPEN&lt;/span&gt;" style="text;html=1;align=center;verticalAlign=middle;resizable=0;points=[];autosize=1;strokeColor=none;fillColor=none;fontColor=#999999;" parent="1" vertex="1">
          <mxGeometry x="362" y="300" width="50" height="30" as="geometry" />
        </mxCell>
        <mxCell id="hGwn2hMxjpEgJmbQmO2B-45" value="&lt;span style=&quot;font-family: &amp;quot;Times New Roman&amp;quot;; font-size: 10px;&quot;&gt;CLOSED&lt;/span&gt;" style="text;html=1;align=center;verticalAlign=middle;resizable=0;points=[];autosize=1;strokeColor=none;fillColor=none;fontColor=#999999;" parent="1" vertex="1">
          <mxGeometry x="470" y="300" width="60" height="30" as="geometry" />
        </mxCell>
        <mxCell id="hGwn2hMxjpEgJmbQmO2B-46" value="&lt;span style=&quot;font-family: &amp;quot;Times New Roman&amp;quot;; font-size: 10px;&quot;&gt;LOCAL&lt;/span&gt;" style="text;html=1;align=center;verticalAlign=middle;resizable=0;points=[];autosize=1;strokeColor=none;fillColor=none;fontColor=#999999;" parent="1" vertex="1">
          <mxGeometry x="30" y="300" width="60" height="30" as="geometry" />
        </mxCell>
      </root>
    </mxGraphModel>
  </diagram>
</mxfile>
